<svg id="coverGirl" data-depth="0.05" xmlns="http://www.w3.org/2000/svg" viewBox="0 0 318.49 350.39"><defs><style>.efcef154-7807-464a-8556-13cae23e324e{fill:#938ab4;}.b72a7c5c-980d-4623-9698-e898fd5738fa{fill:#af8854;}.e82c356b-e23c-4631-b74f-ceb16a869242{fill:#53413a;}.b9d11905-1d17-44fb-9229-d5e4619bc288{fill:#fff;}.b90f9a3f-1e63-4c2c-81ac-8ca7837acd25{fill:#b47500;}</style></defs><title>cover_girl</title><path class="efcef154-7807-464a-8556-13cae23e324e" d="M49.91,63.21c-50.3,59.1-38.5,137.4-34.6,163,4.3,28.6,9.7,64,37.8,91,44.2,42.6,118.3,39.4,167.5,17.2,80.4-36.4,111.9-132.1,103-205-2.5-20.3-8.7-71.2-49-103C212.71-22.19,103.81-.09,49.91,63.21Z" transform="translate(-6.58 0)"/><ellipse class="b72a7c5c-980d-4623-9698-e898fd5738fa" cx="160.33" cy="164.11" rx="93.5" ry="109.8"/><path class="e82c356b-e23c-4631-b74f-ceb16a869242" d="M86.91,46.11C65,63.18,55.9,90.41,38.41,144,22,194.28,10.74,218.72,7.92,253.92c-.66,8.3-.85,15.19-.9,19.8-1.1-3.22-.31,9,4.5,9.72,8.83,1.4,26.42-48.18,24.48-49-1.7-.68-26.68,32.93-17,58.07,3.27,8.51,10.76,16.68,15.61,15.42,10-2.6,7.16-44.69,8.61-44.69s-1.27,42.17,8.18,44.58C59.71,310,73.76,280.26,74.81,278a107,107,0,0,0,9.43-33.45c.67-6.42-.09-5.17-.24-29.66-.14-21.34.4-28.16.75-31.92.9-9.53,2.33-9.85,3.56-23.07,1.9-20.4-1-30.9,6.4-44.9a58,58,0,0,1,21.9-22.7c17.3-10.5,33.5-8.4,64.7-4.3,5-.48,33.79-2.8,49.88,15.72,5.24,6,8,13,9.29,16.27,6,15.12,5,28.63,4.36,36.37-2.71,32.47-3.81,48.72-6.66,61.24-8.64,37.87-19.38,50.26-13.18,73.13,2.23,8.23,7.17,19.74,12,19.45,9.45-.59,14.78-46.23,15-46.19s-13,47.58-2.24,53.18c5,2.6,14.23-4.4,18.8-9.26,10-10.63,11.27-25.26,11.52-25.2.4.1-12.44,35.55-2.44,42.76,4.47,3.21,12.46,0,16.87-2.77,15.17-9.7,16.24-33.37,17.25-55.83.86-19.16-1.68-19.7-.72-43.92,1-25.27,3.41-23,2.16-33.84-1.71-14.93-6.06-19.66-12-46.51-2.5-11.33-1.31-9.39-3.51-18.09-3.92-15.51-9.93-29.31-19.39-51-4.2-9.7-10.7-17.8-20.2-25.9-7.7-6.6-19-13.2-52.1-18.6a364.64,364.64,0,0,0-66.5-4.5C126.31,26.31,106,31.21,86.91,46.11Z" transform="translate(-6.58 0)"/><path class="b9d11905-1d17-44fb-9229-d5e4619bc288" d="M132.13,131.89c9,0,18.43,6.85,17.8,12.3-.61,5.26-10.54,8.55-17.8,8.55s-17.19-3.29-17.8-8.55C113.7,138.74,123.16,131.89,132.13,131.89Z" transform="translate(-6.58 0)"/><circle class="b90f9a3f-1e63-4c2c-81ac-8ca7837acd25" cx="125.55" cy="142.31" r="8.55"/><path class="e82c356b-e23c-4631-b74f-ceb16a869242" d="M203.65,118.56c6.94.4,10.4.6,14,2.16,4.14,1.78,9.19,5.23,8.63,6.84-.47,1.34-4.56.7-17.89-.73-17.37-1.86-24.09-2.25-24.22-4-.07-.89,1.69-1.67,3.6-2.52C191.37,118.78,195.29,118.08,203.65,118.56Z" transform="translate(-6.58 0)"/><path class="e82c356b-e23c-4631-b74f-ceb16a869242" d="M146.33,120.36c1.91.85,3.67,1.63,3.6,2.52-.13,1.7-6.85,2.09-24.22,4-13.33,1.43-17.42,2.07-17.89.73-.56-1.61,4.49-5.06,8.63-6.84,3.64-1.56,7.1-1.76,14-2.16C138.85,118.08,142.77,118.78,146.33,120.36Z" transform="translate(-6.58 0)"/><path class="b9d11905-1d17-44fb-9229-d5e4619bc288" d="M205.29,131.89c9,0,18.43,6.85,17.8,12.3-.61,5.26-10.54,8.55-17.8,8.55s-17.19-3.29-17.8-8.55C186.85,138.74,196.31,131.89,205.29,131.89Z" transform="translate(-6.58 0)"/><circle class="b90f9a3f-1e63-4c2c-81ac-8ca7837acd25" cx="198.7" cy="142.31" r="8.55"/></svg>