<svg id="coverBoy" data-depth="0.08" xmlns="http://www.w3.org/2000/svg" viewBox="0 0 281.48 312.05"><defs><style>.a1ed38f5-461c-4623-8e1d-2070ff709062{fill:#938ab4;}.a980da6b-cc0a-40f2-8645-76f096a048ae{fill:#fff8d5;}.ac5c4a65-936b-4d70-8f1a-9a5c0cba5db8{fill:#e0ab6b;}.a18e25d3-475d-4c42-adec-626c1f120ac4{fill:#fff1c9;}.a09c1bc3-e756-477f-a25b-a9c2a9395222{fill:#fff;}.f79b0951-1b5f-44f2-bc86-6e37686d5222{fill:#6ab1ff;}</style></defs><title>cover_boy</title><path id="f5ad13f9-3600-4694-bed9-bf4207cd06d4" data-name="bg" class="a1ed38f5-461c-4623-8e1d-2070ff709062" d="M34.4,58.7C-11,112.2.6,184.3,3.3,201.5c3.8,23.6,8.7,55.4,33.9,79.7,41.9,40.5,116.3,38.3,165.7,9.7,73.4-42.5,76.9-134.6,78-163,1.2-32,2.6-67.8-20.5-94.2C214.1-19.4,91.7-8.8,34.4,58.7Z" transform="translate(0.02 0.01)"/><circle id="a4b51fd1-9e80-4079-a380-069953a9aead" data-name="face" class="a980da6b-cc0a-40f2-8645-76f096a048ae" cx="135.42" cy="149.51" r="109.8"/><path id="e4736269-b2c6-40c9-a52f-ffb3e6da96a5" data-name="fullHair" class="ac5c4a65-936b-4d70-8f1a-9a5c0cba5db8" d="M74.3,84.9c18.6-9.9,28.7,4.8,51.8-5,15.6-6.6,18.8-16.5,32.4-16.6,7,0,12.2,2.9,22.3,8.6,41.8,23.9,47.7,28.2,51.3,25.8,6.1-4.2,1-25.2-8.1-39.5C211,37.9,189.5,31,184.4,29.4c-7.6-2.4-6.1-.6-28.1-5-24.9-5-25.4-7-33.3-6.5-13.3.8-14.2,6.6-35.1,13.7-21.4,7.3-23.6,2.3-36,8.6C49.6,41.4,22,55.9,22.4,80.5c.2,16,12.2,33.3,23,33.1C56.7,113.4,56.1,94.5,74.3,84.9Z" transform="translate(0.02 0.01)"/><path class="a18e25d3-475d-4c42-adec-626c1f120ac4" d="M68.8,142.3c1.8,10.6,41.1,16.1,46.3,4.5,2.9-6.4-4.3-18.9-13.3-23.4C85.9,115.8,67.4,134.4,68.8,142.3Z" transform="translate(0.02 0.01)"/><path class="a18e25d3-475d-4c42-adec-626c1f120ac4" d="M153.6,142.3c1.8,10.6,41.1,16.1,46.3,4.5,2.9-6.4-4.3-18.9-13.3-23.4C170.7,115.8,152.2,134.4,153.6,142.3Z" transform="translate(0.02 0.01)"/><path class="a09c1bc3-e756-477f-a25b-a9c2a9395222" d="M71.9,141c1.5,7.9,33.6,12,37.9,3.4,2.3-4.8-3.5-14.1-10.9-17.4C85.9,121.2,70.8,135.1,71.9,141Z" transform="translate(0.02 0.01)"/><path class="a09c1bc3-e756-477f-a25b-a9c2a9395222" d="M157.9,141c1.5,7.9,33.6,12,37.9,3.4,2.3-4.8-3.5-14.1-10.9-17.4C171.8,121.2,156.8,135.1,157.9,141Z" transform="translate(0.02 0.01)"/><circle class="f79b0951-1b5f-44f2-bc86-6e37686d5222" cx="91.12" cy="137.41" r="10"/><circle class="f79b0951-1b5f-44f2-bc86-6e37686d5222" cx="177.02" cy="137.41" r="10"/><path class="ac5c4a65-936b-4d70-8f1a-9a5c0cba5db8" d="M78.8,114c-10,4.4-16.2,12.8-15.4,13.9,1.1,1.4,12.9-9.4,33.1-13,7.3-1.3,11.5-.9,11.5-1.4C108.1,112.4,92.8,107.8,78.8,114Z" transform="translate(0.02 0.01)"/><path class="ac5c4a65-936b-4d70-8f1a-9a5c0cba5db8" d="M190.5,112.4c10,4.4,16.2,12.8,15.4,13.9-1.1,1.4-12.9-9.4-33.1-13-7.3-1.3-11.5-.9-11.5-1.4C161.2,110.8,176.5,106.2,190.5,112.4Z" transform="translate(0.02 0.01)"/></svg>