<?xml version="1.0" encoding="utf-8"?>
<!-- Generator: Adobe Illustrator 23.0.3, SVG Export Plug-In . SVG Version: 6.00 Build 0)  -->
<svg version="1.1" xmlns="http://www.w3.org/2000/svg" xmlns:xlink="http://www.w3.org/1999/xlink"
	 viewBox="0 0 722 722" xml:space="preserve">
<style type="text/css">
	.st0{fill:#ECE9EE;}
	.st1{fill:#F3FFB0;}
	.st2{fill:#CFC29D;}
	.st3{fill:#E5DAE7;}
</style>
<path class="st0" d="M0.1,720.78c-1.36-57.46,3.37-190.96,76.4-328.28c57.57-108.24,124.02-177.58,139-229
	c11.53-39.58,13.37-65.67,23.85-88.4c4.4-9.55,10.33-18.5,19.15-27.6c50.81-52.49,152.92-64.1,212-22c37.1,26.44,38.72,60.85,68,138
	c42.25,111.32,77.37,141.06,115,217c75.68,152.74,69.42,288.8,68.82,341.79"/>
<path class="st0" d="M291,125"/>
<path class="st1" d="M31,142"/>
<path class="st1" d="M250,53c5.65,0.4,16.77,1.95,28.4,9.15c13.4,8.3,20,19.5,22.6,24.58c1.27,2.6,7.06,15.09,6.16,32.89
	c-0.9,17.66-7.75,28-9.27,30.18c-5.6,1.6-12.44,2.89-20.27,2.96c-3.97,0.04-6.97-0.25-8.59-0.41c-27.54-2.79-41.31-4.18-46.04-8.34
	C211.48,133.87,223.01,96.06,250,53z"/>
<path class="st2" d="M252.88,78.34c2.54,0.19,7.54,0.94,12.77,4.41c6.03,3.99,9,9.37,10.18,11.81c0.57,1.25,3.18,7.25,2.79,15.8
	c-0.39,8.48-3.47,13.44-4.15,14.49c-2.51,0.76-5.59,1.38-9.11,1.41c-1.79,0.02-3.13-0.12-3.86-0.2c-12.38-1.35-18.57-2.03-20.7-4.03
	C235.61,117.15,240.78,99,252.88,78.34z"/>
<path class="st1" d="M497.81,51c-5.65,0.4-16.77,1.95-28.4,9.15c-13.4,8.3-20,19.5-22.6,24.58c-1.27,2.6-7.06,15.09-6.16,32.89
	c0.9,17.66,7.75,28,9.27,30.18c5.6,1.6,12.44,2.89,20.27,2.96c3.97,0.04,6.97-0.25,8.59-0.41c27.54-2.79,41.31-4.18,46.04-8.34
	C536.34,131.87,524.8,94.06,497.81,51z"/>
<path class="st2" d="M496.7,79.36c-2.41,0.17-7.15,0.84-12.1,3.94c-5.71,3.57-8.52,8.38-9.63,10.57c-0.54,1.12-3.01,6.49-2.63,14.14
	c0.38,7.59,3.3,12.04,3.95,12.97c2.38,0.69,5.3,1.24,8.64,1.27c1.69,0.02,2.97-0.11,3.66-0.18c11.73-1.2,17.6-1.8,19.62-3.59
	C513.11,114.12,508.2,97.86,496.7,79.36z"/>
<path class="st3" d="M279,130c-19.6-65.17-32.9-68.82-29-83c14.79-53.77,224.02-67.31,248-10c6.09,14.55-3.99,23.57-23,93
	c-12.18,44.51-9.31,52.26-20,87c-29.21,94.89-48.92,158.91-71,158c-19.95-0.82-31.59-54.2-73-156c-1.7-4.17-6.98-15.4-13-31
	C288.07,162.28,283.46,144.83,279,130z"/>
<path class="st2" d="M457,217c-29.21,94.89-48.92,158.91-71,158c-19.95-0.82-31.59-54.2-73-156C311.3,214.83,461.39,202.74,457,217z
	"/>
</svg>
