<?xml version="1.0" encoding="utf-8"?>
<!-- Generator: Adobe Illustrator 23.0.3, SVG Export Plug-In . SVG Version: 6.00 Build 0)  -->
<svg version="1.1" id="Layer_1" xmlns="http://www.w3.org/2000/svg" xmlns:xlink="http://www.w3.org/1999/xlink" x="0px" y="0px"
	 viewBox="0 0 1522.8 1129" style="enable-background:new 0 0 1522.8 1129;" xml:space="preserve">
<style type="text/css">
	.st0{fill:#FFFFFF;}
	.st1{fill:#D2D6FF;}
	.st2{fill:#EDEDED;}
	.st3{fill:#FFF794;}
	.st4{fill:#FAFF9F;}
	.st5{fill:#F4F4F4;}
	.st6{fill:#F6FFC9;}
	.st7{fill:#EFE8CF;}
	.st8{fill:#A6DF93;}
	.st9{fill:#B7EF9F;}
	.st10{fill:#F7FFD8;}
	.st11{fill:#FFA8A2;}
	.st12{fill:#FF8A9D;}
	.st13{fill:#FFE967;}
	.st14{fill:#F4F294;}
</style>
<path class="st0" d="M1.5,1118.3c0.8,0,1.5-0.7,1.5-1.5s-0.7-1.5-1.5-1.5S0,1116,0,1116.8S0.6,1118.3,1.5,1118.3z"/>
<path class="st0" d="M737.6,214H1481c22.5,0,40.8,18.3,40.8,40.8v382.4c0,22.5-18.3,40.8-40.8,40.8H737.6
	c-22.5,0-40.8-18.3-40.8-40.8V254.8C696.8,232.3,715.1,214,737.6,214z"/>
<rect x="903.8" y="257" class="st1" width="547" height="378"/>
<ellipse class="st2" cx="799.9" cy="291.3" rx="46.9" ry="46.8"/>
<path class="st3" d="M972.3,394.3c-8-18.3,17.2-47,42.9-60.1c36.9-18.7,73.4-4.3,77.8-2.5c30.8,12.7,58.2,43.8,50.2,62.6
	C1128.4,429.4,987.8,429.7,972.3,394.3z"/>
<path class="st4" d="M980.8,400.9c-7.2-18.3,15.5-47,38.7-60.1c33.2-18.7,66.2-4.3,70.1-2.5c27.8,12.7,52.5,43.8,45.3,62.6
	C1121.4,435.9,994.7,436.2,980.8,400.9z"/>
<path class="st0" d="M774.3,0h672c42.2,0,76.5,34.3,76.5,76.5l0,0c0,42.2-34.3,76.5-76.5,76.5h-672c-42.2,0-76.5-34.3-76.5-76.5l0,0
	C697.8,34.3,732.1,0,774.3,0z"/>
<ellipse class="st2" cx="800.9" cy="76.3" rx="46.9" ry="46.8"/>
<path class="st5" d="M927.3,57h502c12.4,0,22.5,10.1,22.5,22.5l0,0c0,12.4-10.1,22.5-22.5,22.5h-502c-12.4,0-22.5-10.1-22.5-22.5
	l0,0C904.8,67.1,914.9,57,927.3,57z"/>
<path class="st0" d="M774.3,757h672c42.2,0,76.5,34.3,76.5,76.5l0,0c0,42.2-34.3,76.5-76.5,76.5h-672c-42.2,0-76.5-34.3-76.5-76.5
	l0,0C697.8,791.3,732.1,757,774.3,757z"/>
<ellipse class="st2" cx="800.9" cy="833.3" rx="46.9" ry="46.8"/>
<rect x="903.8" y="388" class="st6" width="547" height="247"/>
<path class="st7" d="M1189.6,388c-8.9,13.6-17.7,27.6-26.6,41.9c-4.2,6.8-8.3,13.6-12.3,20.4c-11.4,13.9-24.1,31.8-35.6,54
	c-8,15.5-14,30.2-18.4,43.2c-3.5,13.2-8,27.7-14,43.2c-6.5,16.7-13.6,31.5-20.5,44.3c32.8,0,65.5,0,98.3,0c4.4-6.6,8.8-14.1,13-22.7
	c9.2-19,13.8-36.7,16.2-50.8c7.2-10.1,14.6-21.6,21.6-34.6c16.6-30.6,25.9-59.5,31.3-83.2c4.3-18.6,8.6-37.2,13-55.8H1189.6z"/>
<g>
	<path class="st8" d="M1324.9,471.5L1324.9,471.5c0-3,2.4-5.4,5.4-5.4h13.6c3,0,5.4,2.4,5.4,5.4l0,0c0,3-2.4,5.4-5.4,5.4h-13.6
		C1327.3,476.8,1324.9,474.4,1324.9,471.5z"/>
	<path class="st9" d="M1317.7,525.1L1317.7,525.1c-6.8,0-12.4-5.6-12.4-12.4v-55.5c0-6.8,5.6-12.4,12.4-12.4l0,0
		c6.8,0,12.4,5.6,12.4,12.4v55.5C1330.1,519.6,1324.6,525.1,1317.7,525.1z"/>
	<path class="st8" d="M1345.4,474.7L1345.4,474.7c-2.1,0-3.8-1.7-3.8-3.8V463c0-2.1,1.7-3.8,3.8-3.8l0,0c2.1,0,3.8,1.7,3.8,3.8v7.9
		C1349.2,473,1347.5,474.7,1345.4,474.7z"/>
</g>
<g>
	<path class="st8" d="M988.3,429.2L988.3,429.2c0-2.4,2-4.4,4.4-4.4h8.8c2.4,0,4.4,2,4.4,4.4l0,0c0,2.4-2,4.4-4.4,4.4h-8.8
		C990.3,433.6,988.3,431.6,988.3,429.2z"/>
	<path class="st9" d="M983.1,473.2L983.1,473.2c-5,0-9-4-9-9v-48c0-5,4-9,9-9l0,0c5,0,9,4,9,9v48C992.1,469.2,988,473.2,983.1,473.2
		z"/>
	<path class="st8" d="M1003.1,431.8L1003.1,431.8c-1.5,0-2.7-1.2-2.7-2.7v-7.2c0-1.5,1.2-2.7,2.7-2.7l0,0c1.5,0,2.7,1.2,2.7,2.7v7.2
		C1005.9,430.6,1004.6,431.8,1003.1,431.8z"/>
</g>
<g>
	<path class="st8" d="M1025.9,544.2v-3.6c0-2.4-2-4.4-4.4-4.4h-14.7c-2.4,0-4.4,2-4.4,4.4v3.6c0,2.4,2,4.4,4.4,4.4h14.7
		C1024,548.6,1025.9,546.6,1025.9,544.2z"/>
	<path class="st9" d="M1029.9,604.7h6c5,0,9-4,9-9v-75.2c0-5-4-9-9-9h-6c-5,0-9,4-9,9v75.2C1020.9,600.6,1024.9,604.7,1029.9,604.7z
		"/>
	<path class="st8" d="M1005.2,546.1h1.8c1.5,0,2.7-1.2,2.7-2.7v-12.5c0-1.5-1.2-2.7-2.7-2.7h-1.8c-1.5,0-2.7,1.2-2.7,2.7v12.5
		C1002.5,544.9,1003.7,546.1,1005.2,546.1z"/>
</g>
<path class="st9" d="M1395.6,622.7L1395.6,622.7c-6.8,0-12.4-5.6-12.4-12.4v-55.5c0-6.8,5.6-12.4,12.4-12.4l0,0
	c6.8,0,12.4,5.6,12.4,12.4v55.5C1408,617.1,1402.4,622.7,1395.6,622.7z"/>
<path class="st10" d="M1430.8,408.9c-11.4-7.8-30.7,0.1-41,10.8c-12.6,13-14.7,33-7.9,48.2c5,11.1,17.4,25.7,30.2,23.8
	c15.6-2.3,21.4-27.3,23.8-37.4C1438.3,443.7,1444.2,418.1,1430.8,408.9z"/>
<path class="st10" d="M966.4,529.9c-5.6-8-10.1-14.4-15.1-13.7c-6,0.8-7,11.1-16.6,36.7c-8.4,22.3-11.6,25-12.5,36.5
	c-0.5,6.9-2,25.2,6.7,30.5c13.4,8.1,52.9-13.3,56.9-42.5C988.1,560.9,978.3,547,966.4,529.9z"/>
<path class="st10" d="M1050.6,398.8c3.9-7.9,20.2-4.2,74.9,0.7c18.8,1.7,24.3,1.9,25.9,5.8c4,9.6-25,21.3-49.7,57.6
	c-15.8,23.2-15.3,35.2-25.2,36.7c-18.3,2.9-45.8-34.2-38.2-54c3.6-9.3,13.3-10.7,15.8-22.3C1056.9,410.9,1047.3,405.3,1050.6,398.8z
	"/>
<path class="st10" d="M1318.4,555.1c-5.7-10.8-21.3-5.8-40.3-15.8c-15.7-8.3-15.1-17-23.8-17.3c-15.4-0.5-36.8,26.5-32.4,51.1
	c5.1,28.4,41.4,37.1,49,38.9c19.9,4.8,47.8,3,53.3-9.4c2.7-6.1-2.2-10.2-4.3-36C1319.2,557.9,1319.6,557.3,1318.4,555.1z"/>
<rect x="800.9" y="1026" transform="matrix(0.7071 -0.7071 0.7071 0.7071 -479.0854 921.2256)" class="st11" width="143.1" height="25.9"/>
<rect x="841.2" y="1034.4" transform="matrix(0.9239 0.3827 -0.3827 0.9239 470.2864 -269.5797)" class="st12" width="143.1" height="25.9"/>
<path class="st13" d="M1348.6,1079.3l-76.9,28c-15.7,5.7-33-2.4-38.8-18.1l-15.3-42.1c-5.7-15.7,2.4-33,18.1-38.8l76.9-28
	c15.7-5.7,33,2.4,38.8,18.1l15.3,42.1C1372.4,1056.3,1364.3,1073.6,1348.6,1079.3z"/>
<path class="st14" d="M1338.6,1087.9h-77.8c-16.7,0-30.2-13.5-30.2-30.2v-41.4c0-16.7,13.5-30.2,30.2-30.2h77.8
	c16.7,0,30.2,13.5,30.2,30.2v41.4C1368.8,1074.3,1355.3,1087.9,1338.6,1087.9z"/>
<path class="st5" d="M1004.4,854.8h-67.2c-11.9,0-21.6-9.7-21.6-21.6l0,0c0-11.9,9.7-21.6,21.6-21.6h67.2c11.9,0,21.6,9.7,21.6,21.6
	l0,0C1026,845.2,1016.3,854.8,1004.4,854.8z"/>
</svg>
