<svg class="piger" xmlns="http://www.w3.org/2000/svg" viewBox="0 0 703.54 451.13"><defs><style>.a9ceccc1-d02b-45a0-89f3-16d5032e3d1b{fill:#e5dfe2;}.bae4d6b8-0bbb-4ac5-b4d8-815318394b77{fill:#d4b4f4;}.b931da09-078a-4831-b251-edf08e6042fd,.e1cfcbbd-79e4-43eb-9006-e9d28ab0f51a{fill:#ece9ee;}.e1cfcbbd-79e4-43eb-9006-e9d28ab0f51a{stroke:#000;stroke-miterlimit:10;}.fe8494dd-047e-49d2-8354-be80430ab8dd{fill:#c7bec0;}.e96b2df2-ea83-4dad-bda2-4b1cbf427c76{fill:#f3ffb0;}.f1a6ab2e-c83a-4083-9bfa-3f43501f094e{fill:#cfc29d;}.b677d0be-1f5e-4f3c-af86-a342b8cbda41{fill:#ecc4ee;}.af35d8bd-9c2b-482c-912e-e245a4553f70{fill:#d4a781;}</style></defs><title>piger</title><path class="a9ceccc1-d02b-45a0-89f3-16d5032e3d1b" d="M434,275c-13.1,5.86-16,29.51-17,77-.6,28.63-.9,42.95,2,50,18.05,43.82,98,59.15,109.18,41.95,8-12.37-42.83-36.39-43.18-84.95-.16-22,10.06-30.18,4-48C480.77,286.81,450.32,267.7,434,275Z" transform="translate(0.2 0.28)"/><path class="bae4d6b8-0bbb-4ac5-b4d8-815318394b77" d="M526,170c-8-12.82-9.78-24.83-12-49-3.54-38.61-6-65.81,11-90,1.44-2,25-34.65,52-31,24.21,3.27,23.13,31.92,55,48,33.55,16.93,67,1.49,71,13,3.49,10.16-20.82,27.47-23,29-18,12.66-26.52,9.6-36,17-27.08,21.14,6.41,77.49-16,98C607.86,223.43,549,207,526,170Z" transform="translate(0.2 0.28)"/><path class="a9ceccc1-d02b-45a0-89f3-16d5032e3d1b" d="M339,304a171.45,171.45,0,0,0,60.5,44.26c55.85,24,128.91,17.44,180-24.76,47.78-39.47,78.7-123.18,51-161-61.84-84.42-359.86,24-520.58,108.54C74.58,289.63-6,333.78.5,352.5,9.53,378.33,180.15,342.71,339,304Z" transform="translate(0.2 0.28)"/><path class="e1cfcbbd-79e4-43eb-9006-e9d28ab0f51a" d="M1038.5,266.5" transform="translate(0.2 0.28)"/><path class="fe8494dd-047e-49d2-8354-be80430ab8dd" d="M961,178" transform="translate(0.2 0.28)"/><ellipse class="e96b2df2-ea83-4dad-bda2-4b1cbf427c76" cx="574.27" cy="73.41" rx="32.92" ry="32.87"/><ellipse class="f1a6ab2e-c83a-4083-9bfa-3f43501f094e" cx="574.66" cy="73.07" rx="13.04" ry="12.71"/><path class="b931da09-078a-4831-b251-edf08e6042fd" d="M268,292" transform="translate(0.2 0.28)"/><path class="b677d0be-1f5e-4f3c-af86-a342b8cbda41" d="M960,334" transform="translate(0.2 0.28)"/><path class="b677d0be-1f5e-4f3c-af86-a342b8cbda41" d="M119,324" transform="translate(0.2 0.28)"/><path class="bae4d6b8-0bbb-4ac5-b4d8-815318394b77" d="M95,323C39.52,339.21,3,354.06,0,348c-4.8-9.61,79.68-61.8,162-110h0c87.22-44.76,314.07-153.82,419-109,14.42,6.16,53.92,23,54,46,.07,20-29.68,35.69-55,47-42.46,19-78.85,29.3-111.92,35.39C419.45,266.34,386.28,269.71,359,273,312,278.67,208.32,289.89,95,323Z" transform="translate(0.2 0.28)"/><path class="b931da09-078a-4831-b251-edf08e6042fd" d="M298,413" transform="translate(0.2 0.28)"/><path class="af35d8bd-9c2b-482c-912e-e245a4553f70" d="M365,489" transform="translate(0.2 0.28)"/><path class="b931da09-078a-4831-b251-edf08e6042fd" d="M659,400" transform="translate(0.2 0.28)"/><path class="b931da09-078a-4831-b251-edf08e6042fd" d="M407,503" transform="translate(0.2 0.28)"/></svg>