<?xml version="1.0" encoding="utf-8"?>
<!-- Generator: Adobe Illustrator 23.0.3, SVG Export Plug-In . SVG Version: 6.00 Build 0)  -->
<svg version="1.1" id="Layer_1" xmlns="http://www.w3.org/2000/svg" xmlns:xlink="http://www.w3.org/1999/xlink" x="0px" y="0px"
	 viewBox="0 0 1714.8 1060.3" style="enable-background:new 0 0 1714.8 1060.3;" xml:space="preserve">
<style type="text/css">
	.st0{fill:#FFFFFF;}
	.st1{fill:#ABECA7;}
	.st2{fill:#B3F8B3;}
	.st3{fill:#EDEDED;}
	.st4{fill:#F6F6F6;}
	.st5{fill:#C0D2FF;}
	.st6{fill:#AECFF1;}
	.st7{fill:#B7E3FF;}
	.st8{fill:#EDEDBB;}
	.st9{fill:#DED1A6;}
	.st10{fill:#EFF1BF;}
</style>
<title>piger_messages</title>
<path class="st0" d="M587.3,245h446c42.2,0,76.5,34.3,76.5,76.5l0,0c0,42.2-34.3,76.5-76.5,76.5h-446c-42.2,0-76.5-34.3-76.5-76.5
	l0,0C510.8,279.3,545.1,245,587.3,245z"/>
<path class="st1" d="M973.4,86L973.4,86c7.2,0,13,5.8,13,13v82.5c0,7.2-5.8,13-13,13l0,0c-7.2,0-13-5.8-13-13V99
	C960.3,91.8,966.2,86,973.4,86z"/>
<path class="st2" d="M916.9,141.1L916.9,141.1c0-7,5.7-12.6,12.6-12.6h87.6c7,0,12.6,5.7,12.6,12.6l0,0c0,7-5.7,12.6-12.6,12.6
	h-87.6C922.6,153.7,916.9,148,916.9,141.1z"/>
<ellipse class="st3" cx="589.9" cy="321.3" rx="46.9" ry="46.8"/>
<path class="st0" d="M1241,0h377.6c26.1,0,47.2,21.1,47.2,47.2v294.6c0,26.1-21.1,47.2-47.2,47.2H1241c-26.1,0-47.2-21.1-47.2-47.2
	V47.2C1193.8,21.1,1215,0,1241,0z"/>
<path class="st4" d="M1262.8,41.2h334c12.4,0,22.5,7.6,22.5,17v1.5c0,9.4-10.1,17-22.5,17h-334c-12.4,0-22.5-7.6-22.5-17v-1.5
	C1240.3,48.8,1250.4,41.2,1262.8,41.2z"/>
<path class="st0" d="M737.6,478H1481c22.5,0,40.8,18.3,40.8,40.8v382.4c0,22.5-18.3,40.8-40.8,40.8H737.6
	c-22.5,0-40.8-18.3-40.8-40.8V518.8C696.8,496.3,715.1,478,737.6,478z"/>
<ellipse class="st3" cx="799.8" cy="578.3" rx="57" ry="56.8"/>
<rect x="903.8" y="521" class="st5" width="547" height="378"/>
<path class="st0" d="M1.5,1060.3c0.8,0,1.5-0.7,1.5-1.5s-0.7-1.5-1.5-1.5S0,1058,0,1058.8S0.6,1060.3,1.5,1060.3z"/>
<ellipse class="st6" cx="1633.7" cy="828.8" rx="60.1" ry="59.8"/>
<ellipse class="st7" cx="1654.7" cy="793.8" rx="60.1" ry="59.8"/>
<polygon class="st8" points="1438.9,899 1279.1,635 1097.6,899 "/>
<polygon class="st9" points="1109.3,899 1208.6,775.7 1288.5,899 "/>
<polygon class="st10" points="942.1,899 1091.2,727.4 1211,899 "/>
<path class="st4" d="M1262.8,110.7h334c12.4,0,22.5,7.6,22.5,17v1.5c0,9.4-10.1,17-22.5,17h-334c-12.4,0-22.5-7.6-22.5-17v-1.5
	C1240.3,118.3,1250.4,110.7,1262.8,110.7z"/>
<path class="st4" d="M1262.8,180.1h334c12.4,0,22.5,7.6,22.5,17v1.5c0,9.4-10.1,17-22.5,17h-334c-12.4,0-22.5-7.6-22.5-17v-1.5
	C1240.3,187.8,1250.4,180.1,1262.8,180.1z"/>
<path class="st4" d="M689.8,303.7h334c12.4,0,22.5,7.6,22.5,17v1.5c0,9.4-10.1,17-22.5,17h-334c-12.4,0-22.5-7.6-22.5-17v-1.5
	C667.3,311.3,677.4,303.7,689.8,303.7z"/>
<path class="st4" d="M1399.5,280.6h-141.4c-9.8,0-17.8-8-17.8-17.8l0,0c0-9.8,8-17.8,17.8-17.8h141.4c9.8,0,17.8,8,17.8,17.8l0,0
	C1417.3,272.6,1409.4,280.6,1399.5,280.6z"/>
</svg>
